{
    "asset" : {
        "generator" : "Khronos glTF Blender I/O v3.4.50",
        "version" : "2.0"
    },
    "scene" : 0,
    "scenes" : [
        {
            "name" : "Scene",
            "nodes" : [
                0
            ]
        }
    ],
    "nodes" : [
        {
            "mesh" : 0,
            "name" : "Segment"
        }
    ],
    "meshes" : [
        {
            "name" : "Segment",
            "primitives" : [
                {
                    "attributes" : {
                        "POSITION" : 0,
                        "TEXCOORD_0" : 1,
                        "NORMAL" : 2
                    },
                    "indices" : 3
                }
            ]
        }
    ],
    "accessors" : [
        {
            "bufferView" : 0,
            "componentType" : 5126,
            "count" : 3770,
            "max" : [
                2,
                0.05000000074505806,
                5.197087287902832
            ],
            "min" : [
                -3.5001220703125,
                -0.05000000074505806,
                -2.8685996532440186
            ],
            "type" : "VEC3"
        },
        {
            "bufferView" : 1,
            "componentType" : 5126,
            "count" : 3770,
            "type" : "VEC2"
        },
        {
            "bufferView" : 2,
            "componentType" : 5126,
            "count" : 3770,
            "type" : "VEC3"
        },
        {
            "bufferView" : 3,
            "componentType" : 5123,
            "count" : 6930,
            "type" : "SCALAR"
        }
    ],
    "bufferViews" : [
        {
            "buffer" : 0,
            "byteLength" : 45240,
            "byteOffset" : 0,
            "target" : 34962
        },
        {
            "buffer" : 0,
            "byteLength" : 30160,
            "byteOffset" : 45240,
            "target" : 34962
        },
        {
            "buffer" : 0,
            "byteLength" : 45240,
            "byteOffset" : 75400,
            "target" : 34962
        },
        {
            "buffer" : 0,
            "byteLength" : 13860,
            "byteOffset" : 120640,
            "target" : 34963
        }
    ],
    "buffers" : [
        {
            "byteLength" : 134500,
            "uri" : "data:application/octet-stream;base64,"
        }
    ]
}
